HIERARCHY
ROOT hip
{
	OFFSET 0.000000 0.000000 0.000000
	CHANNELS 6 Xposition Yposition Zposition Xrotation Yrotation Zrotation 
	JOINT lhipjoint
	{
		OFFSET 0.000000 0.000000 0.000000
		CHANNELS 3 Xrotation Yrotation Zrotation
		JOINT lfemur
		{
			OFFSET 1.363060 -1.794630 0.839290
			CHANNELS 3 Xrotation Yrotation Zrotation
			JOINT ltibia
			{
				OFFSET 2.448110 -6.726130 0.000000
				CHANNELS 3 Xrotation Yrotation Zrotation
				JOINT lfoot
				{
					OFFSET 2.562200 -7.039590 0.000000
					CHANNELS 3 Xrotation Yrotation Zrotation
					JOINT ltoes
					{
						OFFSET 0.157640 -0.433110 2.322550
						CHANNELS 3 Xrotation Yrotation Zrotation
						End Site
						{
							OFFSET 0.000000 0.000000 0.000000
						}
					}
				}
			}
		}
	}
	JOINT rhipjoint
	{
		OFFSET 0.000000 0.000000 0.000000
		CHANNELS 3 Xrotation Yrotation Zrotation
		JOINT rfemur
		{
			OFFSET -1.305520 -1.794630 0.839290
			CHANNELS 3 Xrotation Yrotation Zrotation
			JOINT rtibia
			{
				OFFSET -2.542530 -6.985550 0.000000
				CHANNELS 3 Xrotation Yrotation Zrotation
				JOINT rfoot
				{
					OFFSET -2.568260 -7.056230 0.000000
					CHANNELS 3 Xrotation Yrotation Zrotation
					JOINT rtoes
					{
						OFFSET -0.164730 -0.452590 2.363150
						CHANNELS 3 Xrotation Yrotation Zrotation
						End Site
						{
							OFFSET 0.000000 0.000000 0.000000
						}
					}
				}
			}
		}
	}
	JOINT lowerback
	{
		OFFSET 0.000000 0.000000 0.000000
		CHANNELS 3 Xrotation Yrotation Zrotation
		JOINT upperback
		{
			OFFSET 0.028270 2.035590 -0.193380
			CHANNELS 3 Xrotation Yrotation Zrotation
			JOINT thorax
			{
				OFFSET 0.056720 2.048850 -0.042750
				CHANNELS 3 Xrotation Yrotation Zrotation
				JOINT lowerneck
				{
					OFFSET 0.000000 0.000000 0.000000
					CHANNELS 3 Xrotation Yrotation Zrotation
					JOINT upperneck
					{
						OFFSET -0.054170 1.746240 0.172020
						CHANNELS 3 Xrotation Yrotation Zrotation
						JOINT head
						{
							OFFSET 0.104070 1.761360 -0.123970
							CHANNELS 3 Xrotation Yrotation Zrotation
							End Site
							{
								OFFSET 0.000000 0.000000 0.000000
							}
						}
					}
				}
				JOINT lclavicle
				{
					OFFSET 0.000000 0.000000 0.000000
					CHANNELS 3 Xrotation Yrotation Zrotation
					JOINT lhumerus
					{
						OFFSET 3.362410 1.200890 -0.311210
						CHANNELS 3 Xrotation Yrotation Zrotation
						JOINT lradius
						{
							OFFSET 4.983000 -0.000000 -0.000000
							CHANNELS 3 Xrotation Yrotation Zrotation
							JOINT lwrist
							{
								OFFSET 3.483560 -0.000000 -0.000000
								CHANNELS 3 Xrotation Yrotation Zrotation
								JOINT lhand
								{
									OFFSET 0.000000 0.000000 0.000000
									CHANNELS 3 Xrotation Yrotation Zrotation
									JOINT lfingers
									{
										OFFSET 0.715260 -0.000000 -0.000000
										CHANNELS 3 Xrotation Yrotation Zrotation
										End Site
										{
											OFFSET 0.000000 0.000000 0.000000
										}
									}
								}
								JOINT lthumb
								{
									OFFSET 0.000000 0.000000 0.000000
									CHANNELS 3 Xrotation Yrotation Zrotation
									End Site
									{
										OFFSET 0.000000 0.000000 0.000000
									}
								}
							}
						}
					}
				}
				JOINT rclavicle
				{
					OFFSET 0.000000 0.000000 0.000000
					CHANNELS 3 Xrotation Yrotation Zrotation
					JOINT rhumerus
					{
						OFFSET -3.136600 1.374050 -0.404650
						CHANNELS 3 Xrotation Yrotation Zrotation
						JOINT rradius
						{
							OFFSET -5.241900 -0.000000 -0.000000
							CHANNELS 3 Xrotation Yrotation Zrotation
							JOINT rwrist
							{
								OFFSET -3.444170 -0.000000 -0.000000
								CHANNELS 3 Xrotation Yrotation Zrotation
								JOINT rhand
								{
									OFFSET 0.000000 0.000000 0.000000
									CHANNELS 3 Xrotation Yrotation Zrotation
									JOINT rfingers
									{
										OFFSET -0.622530 -0.000000 -0.000000
										CHANNELS 3 Xrotation Yrotation Zrotation
										End Site
										{
											OFFSET 0.000000 0.000000 0.000000
										}
									}
								}
								JOINT rthumb
								{
									OFFSET 0.000000 0.000000 0.000000
									CHANNELS 3 Xrotation Yrotation Zrotation
									End Site
									{
										OFFSET 0.000000 0.000000 0.000000
									}
								}
							}
						}
					}
				}
			}
		}
	}
}
MOTION
Frames: 7
Frame Time: 0.040000
-0.159223 17.749482 18.188264 179.043627 1.629989 175.731834 -0.283905 3.620059 4.362567 -7.418001 2.901983 -19.200872 24.728860 7.411770 -1.663837 4.012744 -9.602120 3.277000 -13.202000 -4.751801 -0.550195 -0.854900 -4.217689 -7.169130 -14.439915 -2.098486 33.670774 34.974700 -11.778967 1.937828 -1.937642 3.181623 -0.245568 -6.500100 2.359400 0.133995 3.463456 -1.916730 -2.376140 -3.620628 -2.722398 1.156912 -1.535645 -0.706689 2.506664 0.600351 6.949595 1.249436 6.284055 8.298221 5.666769 -5.350473 3.736024 -2.393576 5.574417 -9.873721 6.221888 16.098474 -42.109965 -72.727561 2.112545 -28.780583 8.285986 -9.957258 1.668015 1.457457 -0.157723 -12.239721 15.845023 0.000000 0.000000 -7.125000 8.586581 14.862189 -10.603536 5.318446 10.451537 -1.071248 16.557345 37.077098 76.436885 0.270288 22.913203 -6.350317 5.518410 -2.419786 -2.123387 -0.434131 15.745276 -21.828422 0.000000 0.000000 7.125000 4.809505 -11.196849 5.669852 
-0.135233 17.727136 18.168917 179.184461 1.570588 175.756828 -0.250545 3.613863 4.373862 -7.780840 3.132236 -19.069716 25.700516 7.734206 -1.780921 3.918076 -10.043218 3.368586 -12.830697 -4.621009 -0.519821 -0.989944 -4.167502 -7.191137 -13.126278 -1.686204 33.954901 33.617539 -11.341661 1.630327 -3.219301 3.208470 -0.195302 -6.132099 2.226503 0.119250 3.523578 -1.817587 -2.319991 -3.627939 -2.593338 1.142422 -1.586742 -0.643762 2.429721 0.653153 6.857656 1.163597 6.356443 8.171741 5.710705 -5.360457 3.673136 -2.329942 5.572580 -9.924132 6.164859 16.209950 -41.792793 -72.765788 2.272672 -28.986479 8.595989 -9.982725 1.680412 1.420074 -0.156332 -12.097855 15.391342 0.000000 0.000000 -7.125000 8.878621 14.920629 -10.978087 5.342808 10.489288 -1.054434 17.236840 37.811913 76.347817 0.525704 23.471346 -7.032750 4.476171 -2.480429 -2.122886 -0.462942 15.857284 -21.939250 0.000000 0.000000 7.125000 4.728983 -11.031240 5.563601 
-0.111920 17.706726 18.150054 179.323222 1.515980 175.747754 -0.221783 3.606803 4.383145 -8.138537 3.380743 -18.893085 26.658782 8.050726 -1.903282 3.869385 -10.464209 3.459843 -12.518300 -4.510801 -0.494989 -1.109128 -4.119988 -7.211721 -11.939842 -1.256919 34.270306 32.421376 -10.948016 1.368622 -4.653195 3.207742 -0.152804 -6.622600 2.403701 0.139085 3.586579 -1.711042 -2.209886 -3.632436 -2.457747 1.130175 -1.621723 -0.578064 2.351425 0.685671 6.741801 1.077130 6.435126 8.022977 5.726340 -5.365859 3.603744 -2.277245 5.566162 -9.961337 6.110255 16.236012 -41.434220 -72.866736 2.426038 -29.182159 8.889451 -9.932607 1.695341 1.379737 -0.157524 -11.910638 14.950073 0.000000 0.000000 -7.125000 9.161572 15.022052 -11.347002 5.370099 10.524954 -1.026011 17.989751 38.647381 76.150721 0.831280 24.070131 -7.804460 3.313669 -2.543588 -2.119048 -0.491185 15.960166 -21.999431 0.000000 0.000000 7.125000 4.681140 -10.868420 5.496358 
-0.088995 17.685251 18.133900 179.468721 1.480138 175.758859 -0.195987 3.598664 4.393800 -8.501109 3.583241 -18.743837 27.622281 8.366434 -2.032715 3.872524 -10.810888 3.540569 -12.188600 -4.394300 -0.469401 -1.210640 -4.075717 -7.228156 -10.908786 -0.825339 34.558673 31.390334 -10.603736 1.150122 -6.130612 3.189316 -0.124005 -7.835900 2.840800 0.194600 3.684309 -1.602936 -2.097021 -3.637374 -2.318346 1.114686 -1.670147 -0.511699 2.251650 0.700276 6.616556 0.973336 6.521475 7.865430 5.734216 -5.360690 3.531830 -2.216879 5.558886 -10.001491 6.045509 16.288977 -41.011163 -72.972500 2.611698 -29.424224 9.253737 -9.893373 1.713464 1.338680 -0.159578 -11.731911 14.515260 0.000000 0.000000 -7.125000 9.438973 15.110440 -11.708714 5.393230 10.564616 -0.999760 18.740173 39.504113 75.932957 1.170532 24.687036 -8.620265 2.158168 -2.618997 -2.106327 -0.530934 15.946993 -22.067594 0.000000 0.000000 7.125000 4.621986 -10.813661 5.423086 
-0.067133 17.660004 18.119777 179.585321 1.458299 175.770082 -0.175657 3.588705 4.406751 -8.932826 3.753708 -18.607224 28.646993 8.703017 -2.178545 3.833329 -11.131745 3.607001 -11.893698 -4.289906 -0.447041 -1.292034 -4.037403 -7.242448 -10.075104 -0.409847 34.836684 30.493164 -10.301268 0.965759 -7.520702 3.097341 -0.114238 -9.322700 3.374299 0.275211 3.756288 -1.488825 -1.974001 -3.638789 -2.172328 1.098658 -1.684644 -0.441746 2.137187 0.669960 6.502810 0.872701 6.601842 7.726403 5.755853 -5.345247 3.466304 -2.146831 5.550795 -10.030539 5.975362 16.366445 -40.649113 -73.031561 2.823062 -29.695189 9.669131 -9.925582 1.731930 1.299168 -0.161441 -11.563401 14.098786 0.000000 0.000000 -7.125000 9.704382 15.188589 -12.055292 5.411486 10.590848 -0.972482 19.429910 40.312559 75.707159 1.509880 25.283360 -9.412296 1.132500 -2.692958 -2.092910 -0.574365 15.927365 -22.187557 0.000000 0.000000 7.125000 4.526720 -10.771168 5.307934 
-0.045852 17.633886 18.107395 179.705871 1.450506 175.767811 -0.157449 3.577436 4.418925 -9.418219 3.912619 -18.448367 29.721846 9.055780 -2.339385 3.746698 -11.428903 3.658538 -11.863098 -4.279005 -0.444756 -1.356308 -4.004023 -7.255739 -9.381253 -0.003440 35.118126 29.739244 -10.043974 0.814169 -8.789988 2.909595 -0.126185 -10.804597 3.903207 0.369222 3.855233 -1.364879 -1.825959 -3.642039 -2.016069 1.084820 -1.720405 -0.365606 2.049306 0.652840 6.386814 0.707057 6.681423 7.574858 5.789932 -5.334815 3.394040 -2.049823 5.539446 -10.070254 5.897402 16.448709 -40.273518 -73.122108 3.051118 -29.995473 10.119679 -10.034473 1.756259 1.263478 -0.165749 -11.382923 13.737812 0.000000 0.000000 -7.125000 9.934528 15.280546 -12.359552 5.430534 10.614111 -0.940118 20.234317 41.241694 75.358436 1.907452 25.914188 -10.311266 -0.125359 -2.777766 -2.076603 -0.626751 15.834729 -22.325048 0.000000 0.000000 7.125000 4.417177 -10.793445 5.180162 
-0.026215 17.606123 18.098205 179.814903 1.455462 175.747809 -0.143644 3.563133 4.431038 -9.991077 4.069311 -18.266635 30.887941 9.435666 -2.526161 3.733527 -11.706942 3.717935 -12.016400 -4.333400 -0.456302 -1.407311 -3.969768 -7.267249 -8.826081 0.431036 35.405475 29.108763 -9.825995 0.690509 -9.753331 2.576948 -0.161842 -11.494400 4.148400 0.417696 3.948656 -1.241185 -1.629184 -3.637483 -1.861303 1.072181 -1.707971 -0.292066 1.928406 0.584171 6.244288 0.577993 6.763219 7.407236 5.772022 -5.312682 3.321037 -1.984180 5.528472 -10.077860 5.825580 16.456848 -39.864467 -73.215606 3.268393 -30.280656 10.553320 -10.083992 1.773127 1.234589 -0.166272 -11.299529 13.424316 0.000000 0.000000 -7.125000 10.132579 15.289850 -12.613795 5.442850 10.627392 -0.909056 20.860553 42.016559 75.024363 2.274375 26.466225 -11.099715 -1.135773 -2.855030 -2.053148 -0.677165 15.667818 -22.418278 0.000000 0.000000 7.125000 4.334167 -10.896621 5.088442 
